HIERARCHY
ROOT Hips
{
  OFFSET 0 0 0
  CHANNELS 6 Xposition Yposition Zposition Zrotation Yrotation Xrotation
  JOINT LeftThigh
  {
    OFFSET 8.409438 0 -5.917753
    CHANNELS 3 Zrotation Yrotation Xrotation
    JOINT LeftLeg
    {
      OFFSET 0 0 -42.358652
      CHANNELS 3 Zrotation Yrotation Xrotation
      JOINT LeftFoot
      {
        OFFSET 0 0 -39.357303
        CHANNELS 3 Zrotation Yrotation Xrotation
      }
    }
  }
  JOINT RightThigh
  {
    OFFSET -8.409438 0 -5.917753
    CHANNELS 3 Zrotation Yrotation Xrotation
    JOINT RightLeg
    {
      OFFSET 0 0 -42.358652
      CHANNELS 3 Zrotation Yrotation Xrotation
      JOINT RightFoot
      {
        OFFSET 0 0 -39.357303
        CHANNELS 3 Zrotation Yrotation Xrotation
      }
    }
  }
  JOINT SpineLow
  {
    OFFSET 0 0 4.719101
    CHANNELS 3 Zrotation Yrotation Xrotation
    JOINT SpineMid
    {
      OFFSET 0 0 12.899191
      CHANNELS 3 Zrotation Yrotation Xrotation
      JOINT Chest
      {
        OFFSET 0 0 12.899191
        CHANNELS 3 Zrotation Yrotation Xrotation
        JOINT LeftShoulder
        {
          OFFSET 7.550562 1.41573 9.438202
          CHANNELS 3 Zrotation Yrotation Xrotation
          JOINT LeftArm
          {
            OFFSET 9.155056 0 4.247191
            CHANNELS 3 Zrotation Yrotation Xrotation
            JOINT LeftForearm
            {
              OFFSET 0 0 25.771955
              CHANNELS 3 Zrotation Yrotation Xrotation
              JOINT LeftHand
              {
                OFFSET 0 0 25.197169
                CHANNELS 3 Zrotation Yrotation Xrotation
              }
            }
          }
        }
        JOINT RightShoulder
        {
          OFFSET -7.550562 1.41573 9.438202
          CHANNELS 3 Zrotation Yrotation Xrotation
          JOINT RightArm
          {
            OFFSET -9.155056 0 4.247191
            CHANNELS 3 Zrotation Yrotation Xrotation
            JOINT RightForearm
            {
              OFFSET 0 0 -25.771955
              CHANNELS 3 Zrotation Yrotation Xrotation
              JOINT RightHand
              {
                OFFSET 0 0 -25.197169
                CHANNELS 3 Zrotation Yrotation Xrotation
              }
            }
          }
        }
        JOINT Neck
        {
          OFFSET 0 0 15.101124
          CHANNELS 3 Zrotation Yrotation Xrotation
          JOINT Head
          {
            OFFSET 0 0 11.325843
            CHANNELS 3 Zrotation Yrotation Xrotation
            End Site
            {
              OFFSET 0 0 14.157303
            }
          }
        }
      }
    }
  }
}
MOTION
Frames: 11
Frame Time: 0.0
0.0  93.25843  0.0  3.830939  11.120997  -79.126885  3.762619  -15.809934  -15.797206  -10.622732  6.169752  18.517296  -0.268962  0.027118  -0.602579  -19.147552  1.8101  -15.553458  -5.541028  14.454981  18.705499  -3.082704  -1.013763  -2.109489  2.212964  1.464118  -1.559292  5.958702  4.139021  -4.128981  5.958701  4.139021  -4.128981  10.741231  6.366469  12.869302  -164.436537  17.409663  -155.814834  -7.761171  3.575146  105.976579  55.39799  -26.471128  15.202632  15.248204  -12.068491  26.646836  88.601313  32.714542  54.401133  -31.236261  6.904113  -114.465558  79.783909  -34.771577  16.817692  -15.080857  -3.039905  -0.203482  -11.308998  -2.276551  -0.227843  
0.0  93.25843  0.0  3.772982  10.150629  -79.039105  4.63148  -15.662603  -16.2859  -10.776432  6.458761  19.311957  -0.305853  1.96E-4  -0.641569  -18.687703  1.257151  -16.287699  -5.041262  15.335904  19.631901  -2.843678  -0.965751  -2.140362  2.289212  1.478927  -1.590162  6.16447  4.18693  -4.207175  6.16447  4.18693  -4.207175  11.090189  6.551903  13.07231  -164.269869  16.959382  -155.813584  -7.176249  3.101297  106.565121  54.705076  -26.420427  16.249834  14.935625  -12.105721  26.562016  87.977107  32.277678  53.925441  -28.517241  3.771375  -114.867627  78.0028  -32.618021  18.390939  -15.023215  -3.145495  -0.13213  -11.265257  -2.357562  -0.176618  
0.0  93.25843  0.0  3.964768  9.204614  -78.934426  5.54478  -15.153448  -16.545163  -11.058729  6.562116  19.93891  -0.447245  -0.064249  -0.741717  -18.39207  0.965055  -17.086802  -4.499871  16.152064  20.518023  -2.489766  -0.841685  -2.150037  2.30597  1.535935  -1.619861  6.20513  4.346326  -4.282229  6.20513  4.346327  -4.282229  12.035945  6.294876  13.136989  -164.911911  16.176943  -155.903819  -6.72629  2.507724  106.988144  53.940862  -26.588767  17.337155  14.913416  -12.299295  26.625488  87.068865  31.935264  53.304313  -26.105964  1.140893  -115.356576  76.619966  -30.177893  19.387623  -14.81872  -3.286987  -0.046679  -11.111237  -2.465826  -0.114885  
0.0  93.25843  0.0  3.867066  7.794525  -78.929695  6.831258  -14.806863  -16.569512  -11.298918  6.535544  20.369892  -0.676066  -0.188987  -0.895386  -17.660725  0.538708  -17.830628  -3.979248  16.884815  21.417135  -2.20685  -0.810411  -2.15264  2.396966  1.540576  -1.642212  6.452307  4.366886  -4.336772  6.452307  4.366886  -4.336773  12.215535  6.598552  13.232917  -165.072279  15.538875  -155.633292  -6.489415  1.808154  107.277677  53.28262  -26.910388  18.341993  14.508687  -12.372689  26.635382  86.386089  31.375711  52.677241  -24.264589  -0.90967  -115.77597  75.887603  -27.494019  19.608229  -14.616364  -3.372593  -0.017716  -10.959199  -2.530737  -0.094116  
0.0  93.25843  0.0  3.736701  6.120617  -78.95195  8.10768  -14.331661  -16.356451  -11.358928  6.322058  20.625814  -1.008446  -0.337804  -1.108547  -16.798474  0.159765  -18.57203  -3.371059  17.532652  22.3198  -1.831615  -0.745705  -2.173685  2.491536  1.539881  -1.658635  6.709961  4.37267  -4.375318  6.709961  4.37267  -4.375318  12.57841  6.53756  13.033761  -165.722668  14.556813  -155.571844  -6.35015  1.148803  107.535907  52.889143  -27.244323  19.111398  14.131757  -12.419417  26.679788  85.778527  30.769093  52.025944  -23.014011  -2.36985  -116.023127  75.595547  -24.527468  19.201192  -14.269281  -3.441424  -0.021056  -10.698855  -2.582244  -0.096312  
0.0  93.25843  0.0  3.621149  4.099209  -78.981311  9.522081  -13.901587  -15.890574  -11.103527  6.24302  20.686974  -1.275905  -0.449543  -1.250869  -15.735091  -0.151208  -19.339572  -2.677565  18.077175  23.215756  -1.603233  -0.721624  -2.198422  2.598563  1.539155  -1.676018  7.001631  4.379393  -4.415626  7.001631  4.379393  -4.415626  12.824161  6.810844  12.888832  -166.146789  13.811923  -155.164518  -6.22872  0.604388  107.682851  52.645051  -27.538059  19.665562  13.702542  -12.389004  26.831607  85.367929  30.209326  51.406392  -22.385281  -3.252795  -116.066422  75.537876  -21.543782  18.526906  -13.746147  -3.492949  -0.036022  -10.306618  -2.620472  -0.105745  
0.0  93.25843  0.0  3.512251  1.611769  -78.921208  11.055456  -13.779701  -15.519011  -10.396276  6.538033  21.000178  -1.282902  -0.595124  -1.307615  -14.333063  -0.440624  -20.258459  -1.887445  18.535823  24.109322  -1.299149  -0.627176  -2.197754  2.717754  1.540796  -1.721855  7.324492  4.396618  -4.532604  7.324491  4.396618  -4.532604  13.176232  7.101334  12.655444  -166.515693  13.172164  -154.665205  -6.133658  0.216489  107.725099  52.382398  -27.739767  20.156506  13.288461  -12.339396  27.101144  85.16112  29.742148  50.876394  -22.205608  -3.598337  -115.893887  75.645546  -18.863973  17.970605  -13.008128  -3.560611  -0.036397  -9.753162  -2.671118  -0.103238  
0.0  93.25843  0.0  3.400391  -1.430284  -78.696702  12.533476  -13.33831  -15.39115  -9.396829  6.270554  21.721235  -1.097526  -0.546332  -1.340284  -12.553431  -0.734699  -21.447017  -1.006526  18.90129  24.993017  -1.170807  -0.552097  -2.201657  2.868691  1.559789  -1.797623  7.731051  4.467222  -4.7272  7.731051  4.467222  -4.7272  13.527494  7.375858  12.319063  -166.740245  12.694137  -154.011483  -6.087361  0.010908  107.636302  52.048227  -27.961614  20.744906  12.890327  -12.31895  27.419122  85.108387  29.433896  50.40674  -22.301827  -3.570247  -115.532964  75.764577  -16.795745  17.579519  -12.120301  -3.699794  -0.065167  -9.087456  -2.774846  -0.122396  
0.0  93.25843  0.0  3.361407  -4.837707  -78.577559  13.750803  -12.33286  -15.085314  -8.187321  5.42218  22.506307  -0.986594  -0.303287  -1.294462  -10.681366  -0.916878  -22.651846  -0.024311  19.177272  25.854992  -1.009679  -0.42531  -2.217919  3.036517  1.586676  -1.871271  8.183326  4.561184  -4.913544  8.183327  4.561184  -4.913544  13.746449  7.637334  12.03062  -166.752117  12.381477  -153.17605  -6.117323  -0.042231  107.495444  51.764805  -28.290929  21.489823  12.492006  -12.237304  27.912661  85.153069  29.283885  49.917399  -22.380663  -3.441802  -115.110442  75.760436  -15.454244  17.326443  -11.138575  -3.824124  -0.092275  -8.351403  -2.86754  -0.139038  
0.0  93.25843  0.0  3.368946  -8.490046  -78.624455  15.274188  -11.476506  -14.622453  -7.394866  4.922997  23.013016  -0.785757  -0.174721  -1.182928  -8.86726  -1.016685  -23.728648  0.979857  19.383829  26.580592  -0.843218  -0.346351  -2.242953  3.201354  1.619455  -1.946734  8.626745  4.672143  -5.103858  8.626745  4.672144  -5.103858  13.8518  7.770504  11.851808  -166.610431  12.174199  -152.185111  -6.236415  -0.11576  107.429076  51.622187  -28.754965  22.334589  12.169331  -12.228681  28.544351  85.237502  29.185483  49.465757  -22.209595  -3.459871  -114.730649  75.663656  -14.610672  17.139274  -10.063454  -3.948476  -0.067137  -7.545033  -2.961203  -0.115489  
0.0  93.25843  0.0  3.332354  -12.477913  -78.709072  17.316838  -10.909387  -13.914339  -7.410424  5.206419  22.823628  0.037199  -0.123575  -0.756652  -6.998361  -1.107595  -24.734713  1.995028  19.477004  27.098837  -0.526938  -0.273209  -2.217924  3.361007  1.636909  -2.031354  9.056139  4.743089  -5.321026  9.05614  4.743089  -5.321025  13.90804  7.922215  11.68579  -166.318634  12.137201  -151.105216  -6.399659  -0.40212  107.640152  51.63506  -29.313269  23.042378  12.122362  -12.279157  29.194517  85.323435  29.077152  49.094938  -21.816778  -3.684856  -114.39713  75.594381  -13.932286  16.812406  -8.827516  -4.066659  -0.034527  -6.618083  -3.050249  -0.084738  
